<svg width="120" height="120" viewBox="0 0 120 120" fill="none" xmlns="http://www.w3.org/2000/svg">
<rect width="120" height="120" fill="#111111"/>
<path d="M88.76 74.08C88.5627 76.3493 87.3787 78.52 85.208 80.592C83.136 82.664 80.472 83.7 77.216 83.7C69.3227 83.7 62.3667 83.2067 56.348 82.22C50.428 81.2333 45.3467 80.3453 41.104 79.556C40.7093 79.4573 40.3147 79.408 39.92 79.408C39.5253 79.408 39.0813 79.408 38.588 79.408C37.8973 79.408 37.256 79.4573 36.664 79.556C36.1707 79.556 35.924 79.556 35.924 79.556C34.8387 79.556 34.296 78.7667 34.296 77.188C34.296 76.004 34.592 74.968 35.184 74.08C36.5653 72.2053 38.3907 70.3307 40.66 68.456C42.9293 66.5813 45.248 64.8053 47.616 63.128C49.984 61.352 51.9573 59.6747 53.536 58.096C55.904 55.6293 58.568 53.508 61.528 51.732C64.5867 49.8573 67.3 48.1307 69.668 46.552C72.036 44.9733 73.3187 43.3947 73.516 41.816C71.5427 41.6187 70.0133 41.52 68.928 41.52C67.8427 41.52 66.3133 41.3227 64.34 40.928C62.4653 40.5333 60.788 40.336 59.308 40.336C58.716 40.336 58.124 40.3853 57.532 40.484C57.0387 40.484 56.4467 40.484 55.756 40.484C55.2627 40.484 54.72 40.484 54.128 40.484C53.536 40.3853 52.8947 40.2867 52.204 40.188C52.204 40.188 51.76 40.2867 50.872 40.484C50.0827 40.5827 49.3427 40.8787 48.652 41.372C48.06 41.7667 48.0107 42.3587 48.504 43.148C48.9973 43.9373 48.652 44.628 47.468 45.22C46.3827 45.812 45.2973 46.108 44.212 46.108C42.9293 46.108 42.0907 45.7627 41.696 45.072C41.2027 44.0853 40.956 43.2467 40.956 42.556C40.956 40.8787 41.6467 39.4973 43.028 38.412C44.4093 37.3267 45.7907 36.488 47.172 35.896C48.652 35.304 49.392 35.008 49.392 35.008C52.2533 35.4027 54.9173 35.6987 57.384 35.896C59.8507 35.9947 62.4653 36.34 65.228 36.932C66.412 37.228 67.5467 37.4253 68.632 37.524C69.816 37.6227 71 37.672 72.184 37.672C73.5653 37.672 75.0453 37.6227 76.624 37.524C78.2027 37.4253 79.9293 37.376 81.804 37.376C82.396 37.376 82.7907 37.7213 82.988 38.412C83.284 39.1027 83.432 39.8427 83.432 40.632C83.432 41.4213 83.284 42.26 82.988 43.148C82.7907 43.9373 82.4453 44.48 81.952 44.776C78.4 47.0453 75.44 48.8707 73.072 50.252C70.8027 51.5347 68.8293 52.6693 67.152 53.656C65.5733 54.544 63.9947 55.58 62.416 56.764C60.936 57.948 59.16 59.576 57.088 61.648C56.0027 62.6347 54.572 63.9173 52.796 65.496C51.1187 66.976 49.5893 68.4067 48.208 69.788C46.8267 71.1693 46.136 72.304 46.136 73.192C46.136 73.8827 46.58 74.2773 47.468 74.376C51.2173 74.968 54.1773 75.56 56.348 76.152C58.5187 76.744 60.2453 77.336 61.528 77.928C62.8107 78.4213 64.044 78.8653 65.228 79.26C66.5107 79.6547 68.04 79.9507 69.816 80.148C71.592 80.444 74.0587 80.592 77.216 80.592C79.4853 80.592 81.36 79.852 82.84 78.372C84.4187 76.892 85.2573 75.3627 85.356 73.784C85.356 73.488 85.356 73.192 85.356 72.896C85.4547 72.5013 85.504 72.1067 85.504 71.712C85.504 69.7387 85.1093 67.8147 84.32 65.94C83.6293 63.9667 82.248 62.7827 80.176 62.388C79.88 62.2893 79.584 62.24 79.288 62.24C78.992 62.24 78.696 62.24 78.4 62.24C78.104 62.24 77.7587 62.24 77.364 62.24C77.068 62.24 76.772 62.3387 76.476 62.536C75.0947 63.2267 74.404 64.1147 74.404 65.2C74.404 65.792 74.6507 66.532 75.144 67.42C75.736 68.2093 76.3773 68.604 77.068 68.604C77.8573 68.604 78.4987 68.0613 78.992 66.976C79.6827 65.792 80.6693 65.2 81.952 65.2C82.7413 65.2 82.988 65.5947 82.692 66.384C81.9027 68.0613 80.9653 69.2453 79.88 69.936C78.8933 70.6267 77.8573 70.972 76.772 70.972C75.1933 70.972 73.812 70.38 72.628 69.196C71.5427 68.012 71 66.7293 71 65.348C71 62.7827 72.3813 60.908 75.144 59.724C75.9333 59.3293 76.8213 58.984 77.808 58.688C78.8933 58.392 79.9293 58.3427 80.916 58.54C83.0867 58.9347 84.764 60.02 85.948 61.796C87.132 63.572 87.9213 65.5947 88.316 67.864C88.8093 70.0347 88.9573 72.1067 88.76 74.08Z" fill="#8092D6"/>
</svg>
